<?xml version="1.0" encoding="utf-8"?>
<!-- Generator: Adobe Illustrator 15.1.0, SVG Export Plug-In . SVG Version: 6.00 Build 0)  -->
<!DOCTYPE svg PUBLIC "-//W3C//DTD SVG 1.1//EN" "http://www.w3.org/Graphics/SVG/1.1/DTD/svg11.dtd">
<svg version="1.1" id="レイヤー_1" xmlns="http://www.w3.org/2000/svg" xmlns:xlink="http://www.w3.org/1999/xlink" x="0px"
	 y="0px" width="530px" height="80px" viewBox="0 0 530 80" enable-background="new 0 0 530 80" xml:space="preserve">
<g>
	<path fill="none" stroke="#494949" stroke-linecap="round" stroke-linejoin="round" stroke-miterlimit="10" d="M61.22,58.173
		C58.102,55.055,10.942,6.044,8.215,2.926H8.019C7.533,12.962,4.903,67.721,4.415,75.028l9.158,0.683
		c-0.096-3.216,0.682-50.86,0.682-54.271h0.196c1.754,2.436,51.056,53.005,53.687,55.635h0.194
		c0.391-24.553,2.241-64.404,2.632-70.25l-9.063-0.487C61.805,9.552,61.22,55.445,61.22,58.173z"/>
	<path fill="none" stroke="#494949" stroke-linecap="round" stroke-linejoin="round" stroke-miterlimit="10" d="M123.364,30.493
		c0.075,2.337,0.367,5.99,0.367,10.302v2.119c0,9.79-0.074,17.242-3.143,21.771c-2.191,3.289-5.479,5.919-11.179,5.919
		c-4.749,0-8.474-1.827-11.03-5.992c-2.484-4.091-3.07-8.693-3.07-18.777v-4.164c0-5.698,0.222-8.62,0.293-10.228h-6.575
		c0,1.461-0.073,5.992-0.073,8.84v3.362c0,15.05,1.316,19.944,4.385,24.547c4.674,6.941,11.615,7.453,15.195,7.453
		c7.088,0,11.762-2.119,15.708-6.648c4.97-5.772,5.846-13.299,5.846-25.207v-2.922c0-4.896-0.073-8.987-0.073-10.375H123.364z"/>
	<path fill="none" stroke="#494949" stroke-linecap="round" stroke-linejoin="round" stroke-miterlimit="10" d="M164.431,54.385
		c5.48-3.216,9.428-7.598,9.428-12.714c0-5.405-5.114-8.985-13.884-10.008c-5.552-0.658-11.324-0.512-14.466-0.512
		c0.219,1.168,0.365,14.028,0.365,15.927v5.041c0,1.315,0.075,21.042-0.146,22.503h6.869c-0.146-0.949-0.366-16.658-0.366-18.995
		V35.901c12.422,0.071,14.686,3.797,14.686,6.721c0,6.21-6.647,9.57-9.937,11.251c1.973,2.63,17.025,21.041,17.754,21.919
		l5.041-4.458C177.876,69.509,166.111,56.65,164.431,54.385z"/>
	<path fill="none" stroke="#494949" stroke-linecap="round" stroke-linejoin="round" stroke-miterlimit="10" d="M222.448,30.493
		c0.071,2.337,0.365,5.99,0.365,10.302v2.119c0,9.79-0.074,17.242-3.143,21.771c-2.191,3.289-5.48,5.919-11.177,5.919
		c-4.749,0-8.476-1.827-11.032-5.992c-2.486-4.091-3.069-8.693-3.069-18.777v-4.164c0-5.698,0.219-8.62,0.292-10.228h-6.575
		c0,1.461-0.073,5.992-0.073,8.84v3.362c0,15.05,1.314,19.944,4.383,24.547c4.678,6.941,11.617,7.453,15.197,7.453
		c7.086,0,11.764-2.119,15.708-6.648c4.968-5.772,5.846-13.299,5.846-25.207v-2.922c0-4.896-0.073-8.987-0.073-10.375H222.448z"/>
	<path fill="none" stroke="#E84522" stroke-linecap="round" stroke-linejoin="round" stroke-miterlimit="10" d="M265.267,38.164
		c-3.057,3.245-5.316,10.841-7.14,14.904l9.261-9.644c3.725-4.018,8.254-6.647,11.762-7.744l-1.9-5.334
		C273.815,31.443,268.188,35.096,265.267,38.164z"/>
	<path fill="none" stroke="#E84522" stroke-linecap="round" stroke-linejoin="round" stroke-miterlimit="10" d="M259.861,62.004
		c0-1.752-1.627-5.182-3.147-5.197c-1.528-0.016-3.209,3.368-3.209,5.197v4.183c0,0.767-0.293,7.042-0.293,8.436h7.015
		c-0.146-1.186-0.365-6.483-0.365-7.32V62.004z"/>
	<path fill="none" stroke="#E84522" stroke-linecap="round" stroke-linejoin="round" stroke-miterlimit="10" d="M248.462,37.361
		c-1.679-1.827-6.062-5.113-9.569-6.868l-2.704,5.334c2.777,1.097,6.283,3.653,8.987,6.429l11.195,10.814
		C254.508,48.722,251.162,40.248,248.462,37.361z"/>
	<path fill="none" stroke="#E84522" stroke-linecap="round" stroke-linejoin="round" stroke-miterlimit="10" d="M319.265,30.493
		c0.073,2.337,0.365,5.99,0.365,10.302v2.119c0,9.79-0.074,17.242-3.143,21.771c-2.191,3.289-5.479,5.919-11.177,5.919
		c-4.749,0-8.476-1.827-11.033-5.992c-2.483-4.091-3.068-8.693-3.068-18.777v-4.164c0-5.698,0.218-8.62,0.292-10.228h-6.575
		c0,1.461-0.073,5.992-0.073,8.84v3.362c0,15.05,1.314,19.944,4.383,24.547c4.676,6.941,11.617,7.453,15.197,7.453
		c7.088,0,11.764-2.119,15.708-6.648c4.968-5.772,5.846-13.299,5.846-25.207v-2.922c0-4.896-0.073-8.987-0.073-10.375H319.265z"/>
	<path fill="none" stroke="#494949" stroke-linecap="round" stroke-linejoin="round" stroke-miterlimit="10" d="M391.756,3.413
		c-2.337,3.703-30.398,59.047-35.758,68.4l7.99,5.066c1.657-3.313,9.646-22.119,10.814-23.968l33.812-1.366
		c1.07,1.561,11.399,21.534,13.348,25.237l8.281-5.457c-6.624-10.133-29.716-54.077-38.291-67.913H391.756z M378.117,46.479
		c0.876-1.558,12.081-25.431,13.542-27.573c0.975,1.56,12.959,24.261,14.031,26.404L378.117,46.479z"/>
	<path fill="none" stroke="#494949" stroke-linecap="round" stroke-linejoin="round" stroke-miterlimit="10" d="M499.868,28.959
		h-0.146c-1.461,2.411-20.457,37.555-23.964,43.765l5.625,3.213c1.023-2.117,6.137-12.932,7.015-14.904l22.575-0.876
		c0.658,1.097,7.526,13.37,8.696,15.709l5.916-3.582C521.274,65.782,505.494,37.8,499.868,28.959z M490.882,56.43
		c0.584-1.022,7.817-15.708,8.767-17.169c0.658,1.022,8.329,15.051,9.061,16.438L490.882,56.43z"/>
	<path fill="none" stroke="#494949" stroke-linecap="round" stroke-linejoin="round" stroke-miterlimit="10" d="M473.927,30.347
		c-3.434,1.097-9.061,4.749-11.982,7.817c-3.057,3.245-5.316,10.841-7.14,14.904l9.261-9.644c3.725-4.018,8.254-6.647,11.762-7.744
		L473.927,30.347z"/>
	<path fill="none" stroke="#494949" stroke-linecap="round" stroke-linejoin="round" stroke-miterlimit="10" d="M445.14,37.361
		c-1.68-1.827-6.062-5.113-9.57-6.868l-2.703,5.334c2.777,1.097,6.283,3.653,8.986,6.429l11.195,10.814
		C451.185,48.722,447.839,40.248,445.14,37.361z"/>
	<path fill="none" stroke="#494949" stroke-linecap="round" stroke-linejoin="round" stroke-miterlimit="10" d="M456.539,62.004
		c0-1.752-1.628-5.182-3.147-5.197c-1.528-0.016-3.209,3.368-3.209,5.197v4.183c0,0.767-0.294,7.042-0.294,8.436h7.015
		c-0.145-1.186-0.364-6.483-0.364-7.32V62.004z"/>
</g>
</svg>
